<svg xmlns="http://www.w3.org/2000/svg" viewBox="0 0 64 64" width="64" height="64" role="img" aria-label="Funora"><rect x="3.5" y="30.10" width="13.20" height="3.80" rx="1.90" fill="#8A9199"/><path d="M23.77 26.66L24.63 28.14Q26.90 32.00 24.63 35.86L23.77 37.34Q21.50 41.20 19.23 37.34L18.37 35.86Q16.10 32.00 18.37 28.14L19.23 26.66Q21.50 22.80 23.77 26.66Z" fill="#8A9199"/><path d="M27.66 29.37L48.71 17.90A3.00 3.00 0 0 0 45.45 12.87L26.41 27.44A1.15 1.15 0 0 0 27.66 29.37Z" fill="#D9483B"/><path d="M28.10 30.85L51.21 24.49A3.00 3.00 0 0 0 49.18 18.85L27.32 28.68A1.15 1.15 0 0 0 28.10 30.85Z" fill="#DE7A2E"/><path d="M28.19 32.38L52.14 31.47A3.00 3.00 0 0 0 51.45 25.51L27.92 30.10A1.15 1.15 0 0 0 28.19 32.38Z" fill="#C9A227"/><path d="M27.92 33.90L51.45 38.49A3.00 3.00 0 0 0 52.14 32.53L28.19 31.62A1.15 1.15 0 0 0 27.92 33.90Z" fill="#3FA45B"/><path d="M27.32 35.32L49.18 45.15A3.00 3.00 0 0 0 51.21 39.51L28.10 33.15A1.15 1.15 0 0 0 27.32 35.32Z" fill="#2E8FA8"/><path d="M26.41 36.56L45.45 51.13A3.00 3.00 0 0 0 48.71 46.10L27.66 34.63A1.15 1.15 0 0 0 26.41 36.56Z" fill="#5B6FC9"/></svg>
